<svg xmlns="http://www.w3.org/2000/svg" xmlns:xlink="http://www.w3.org/1999/xlink"
     viewBox="108 80 152 160" width="512" height="512">
  <defs>
    <clipPath id="a">
      <path d="M 118.5625 106.269531 L 193.488281 106.269531 L 193.488281 238.617188 L 118.5625 238.617188 Z"/>
    </clipPath>
    <clipPath id="b">
      <path d="M 160.167969 112.210938 L 256.441406 112.210938 L 256.441406 232.890625 L 160.167969 232.890625 Z"/>
    </clipPath>
    <clipPath id="c">
      <path d="M 181 88.617188 L 197 88.617188 L 197 104 L 181 104 Z"/>
    </clipPath>
  </defs>

  <!-- Blue feather / wing -->
  <g clip-path="url(#a)">
    <path fill="#054676"
      d="M 118.5625 154.664062 C 118.5625 154.664062 149.703125 167.144531 165.960938 158.445312
         C 188.964844 146.140625 176.050781 117.980469 188.15625 106.421875
         C 188.15625 106.421875 185.929688 121.355469 191.679688 148.613281
         C 204.289062 208.371094 146.800781 238.628906 146.800781 238.628906
         C 146.800781 238.628906 165.113281 210.722656 154.207031 186.9375
         C 145.789062 168.570312 130.238281 171.300781 118.5625 154.664062"/>
  </g>

  <!-- Blue circle (head) -->
  <path fill="#054676"
    d="M 170.878906 144.109375 C 170.878906 150.324219 165.84375 155.363281 159.625 155.363281
       C 153.410156 155.363281 148.371094 150.324219 148.371094 144.109375
       C 148.371094 137.894531 153.410156 132.855469 159.625 132.855469
       C 165.84375 132.855469 170.878906 137.894531 170.878906 144.109375"/>

  <!-- Blue connector / beak detail -->
  <path fill="#054676"
    d="M 157.328125 140.597656 L 171.363281 126.0625 L 151.300781 127.347656 L 137.144531 141.628906
       L 139.71875 141.5 L 142.308594 147.191406
       C 142.109375 147.421875 142.046875 147.757812 142.183594 148.054688
       C 142.316406 148.351562 142.609375 148.527344 142.917969 148.527344
       L 142.964844 148.632812 L 143.875 154.132812 L 145.152344 152.632812 L 147.125 152.65625
       L 143.574219 148.355469 L 143.527344 148.25
       C 143.726562 148.019531 143.789062 147.683594 143.65625 147.386719
       C 143.519531 147.085938 143.226562 146.914062 142.917969 146.914062
       L 140.4375 141.460938 L 157.328125 140.597656"/>

  <!-- Orange star burst -->
  <g clip-path="url(#b)">
    <path fill="#f6921e"
      d="M 256.089844 157.804688 C 255.160156 154.933594 252.605469 153.078125 249.585938 153.078125
         L 211.699219 153.078125 L 199.992188 117.046875
         C 199.058594 114.175781 196.507812 112.320312 193.488281 112.320312
         C 192.328125 112.320312 191.234375 112.597656 190.277344 113.101562
         C 190.21875 116.679688 190.339844 121.738281 190.992188 128.164062
         L 193.488281 120.484375 L 204.898438 155.601562
         C 205.816406 158.429688 208.429688 160.328125 211.402344 160.328125
         L 248.328125 160.328125 L 218.453125 182.03125
         C 216.050781 183.777344 215.050781 186.847656 215.96875 189.675781
         L 227.378906 224.792969 L 197.507812 203.089844
         C 196.304688 202.214844 194.898438 201.78125 193.488281 201.78125
         C 192.082031 201.78125 190.671875 202.214844 189.46875 203.089844
         L 183.460938 207.453125
         C 181.226562 210.953125 178.699219 214.359375 175.890625 217.664062
         C 170.59375 223.886719 165.066406 228.839844 160.339844 232.550781
         C 161.214844 232.34375 162.0625 231.960938 162.835938 231.398438
         L 193.488281 209.128906 L 224.140625 231.398438
         C 225.363281 232.285156 226.761719 232.726562 228.160156 232.726562
         C 229.558594 232.726562 230.957031 232.285156 232.179688 231.398438
         C 234.621094 229.625 235.597656 226.621094 234.664062 223.753906
         L 222.957031 187.71875 L 253.605469 165.449219
         C 256.050781 163.675781 257.023438 160.675781 256.089844 157.804688"/>
  </g>

  <!-- Silver/grey accent -->
  <path fill="#b3c7d6"
    d="M 164.320312 156.71875 C 164.320312 156.71875 172.011719 162.957031 169.113281 176.007812
       L 174.40625 178.402344 L 176.675781 171.847656
       C 176.675781 171.847656 175.097656 162.453125 166.714844 155.363281 L 164.320312 156.71875"/>

  <!-- Small orange star (top) -->
  <g clip-path="url(#c)">
    <path fill="#f6921e"
      d="M 189.09375 88.617188 L 190.9375 94.296875 L 196.90625 94.296875 L 192.078125 97.804688
         L 193.921875 103.480469 L 189.09375 99.972656 L 184.261719 103.480469
         L 186.109375 97.804688 L 181.277344 94.296875 L 187.25 94.296875 L 189.09375 88.617188"/>
  </g>
</svg>
