<svg xmlns="http://www.w3.org/2000/svg" xmlns:xlink="http://www.w3.org/1999/xlink" width="500" zoomAndPan="magnify" viewBox="0 0 375 374.999991" height="500" preserveAspectRatio="xMidYMid meet" version="1.0"><defs><g/><clipPath id="d34deab0dc"><path d="M 118.5625 106.269531 L 193.488281 106.269531 L 193.488281 238.617188 L 118.5625 238.617188 Z M 118.5625 106.269531 " clip-rule="nonzero"/></clipPath><clipPath id="9ad175baca"><path d="M 160.167969 112.210938 L 256.441406 112.210938 L 256.441406 232.890625 L 160.167969 232.890625 Z M 160.167969 112.210938 " clip-rule="nonzero"/></clipPath><clipPath id="16f2583d89"><path d="M 181 88.617188 L 197 88.617188 L 197 104 L 181 104 Z M 181 88.617188 " clip-rule="nonzero"/></clipPath></defs><g clip-path="url(#d34deab0dc)"><path fill="#054676" d="M 118.5625 154.664062 C 118.5625 154.664062 149.703125 167.144531 165.960938 158.445312 C 188.964844 146.140625 176.050781 117.980469 188.15625 106.421875 C 188.15625 106.421875 185.929688 121.355469 191.679688 148.613281 C 204.289062 208.371094 146.800781 238.628906 146.800781 238.628906 C 146.800781 238.628906 165.113281 210.722656 154.207031 186.9375 C 145.789062 168.570312 130.238281 171.300781 118.5625 154.664062 " fill-opacity="1" fill-rule="nonzero"/></g><path fill="#054676" d="M 170.878906 144.109375 C 170.878906 150.324219 165.84375 155.363281 159.625 155.363281 C 153.410156 155.363281 148.371094 150.324219 148.371094 144.109375 C 148.371094 137.894531 153.410156 132.855469 159.625 132.855469 C 165.84375 132.855469 170.878906 137.894531 170.878906 144.109375 " fill-opacity="1" fill-rule="nonzero"/><path fill="#054676" d="M 157.328125 140.597656 L 171.363281 126.0625 L 151.300781 127.347656 L 137.144531 141.628906 L 139.71875 141.5 L 142.308594 147.191406 C 142.109375 147.421875 142.046875 147.757812 142.183594 148.054688 C 142.316406 148.351562 142.609375 148.527344 142.917969 148.527344 L 142.964844 148.632812 L 143.875 154.132812 L 145.152344 152.632812 L 147.125 152.65625 L 143.574219 148.355469 L 143.527344 148.25 C 143.726562 148.019531 143.789062 147.683594 143.65625 147.386719 C 143.519531 147.085938 143.226562 146.914062 142.917969 146.914062 L 140.4375 141.460938 L 157.328125 140.597656 " fill-opacity="1" fill-rule="nonzero"/><g clip-path="url(#9ad175baca)"><path fill="#f6921e" d="M 256.089844 157.804688 C 255.160156 154.933594 252.605469 153.078125 249.585938 153.078125 L 211.699219 153.078125 L 199.992188 117.046875 C 199.058594 114.175781 196.507812 112.320312 193.488281 112.320312 C 192.328125 112.320312 191.234375 112.597656 190.277344 113.101562 C 190.21875 116.679688 190.339844 121.738281 190.992188 128.164062 L 193.488281 120.484375 L 204.898438 155.601562 C 205.816406 158.429688 208.429688 160.328125 211.402344 160.328125 L 248.328125 160.328125 L 218.453125 182.03125 C 216.050781 183.777344 215.050781 186.847656 215.96875 189.675781 L 227.378906 224.792969 L 197.507812 203.089844 C 196.304688 202.214844 194.898438 201.78125 193.488281 201.78125 C 192.082031 201.78125 190.671875 202.214844 189.46875 203.089844 L 183.460938 207.453125 C 181.226562 210.953125 178.699219 214.359375 175.890625 217.664062 C 170.59375 223.886719 165.066406 228.839844 160.339844 232.550781 C 161.214844 232.34375 162.0625 231.960938 162.835938 231.398438 L 193.488281 209.128906 L 224.140625 231.398438 C 225.363281 232.285156 226.761719 232.726562 228.160156 232.726562 C 229.558594 232.726562 230.957031 232.285156 232.179688 231.398438 C 234.621094 229.625 235.597656 226.621094 234.664062 223.753906 L 222.957031 187.71875 L 253.605469 165.449219 C 256.050781 163.675781 257.023438 160.675781 256.089844 157.804688 " fill-opacity="1" fill-rule="nonzero"/></g><path fill="#b3c7d6" d="M 164.320312 156.71875 C 164.320312 156.71875 172.011719 162.957031 169.113281 176.007812 L 174.40625 178.402344 L 176.675781 171.847656 C 176.675781 171.847656 175.097656 162.453125 166.714844 155.363281 L 164.320312 156.71875 " fill-opacity="1" fill-rule="nonzero"/><g clip-path="url(#16f2583d89)"><path fill="#f6921e" d="M 189.09375 88.617188 L 190.9375 94.296875 L 196.90625 94.296875 L 192.078125 97.804688 L 193.921875 103.480469 L 189.09375 99.972656 L 184.261719 103.480469 L 186.109375 97.804688 L 181.277344 94.296875 L 187.25 94.296875 L 189.09375 88.617188 " fill-opacity="1" fill-rule="nonzero"/></g><g fill="#054676" fill-opacity="1"><g transform="translate(77.250807, 260.159501)"><g><path d="M 8.890625 -15.3125 L 15.078125 0 L 11.328125 0 L 10.1875 -3.0625 L 4.359375 -3.0625 L 3.234375 0 L -0.515625 0 L 5.65625 -15.3125 Z M 9 -6.125 L 7.296875 -10.578125 L 7.265625 -10.578125 L 5.546875 -6.125 Z M 9 -6.125 "/></g></g></g><g fill="#054676" fill-opacity="1"><g transform="translate(91.8038, 260.159501)"><g><path d="M 6.75 -15.59375 C 7.582031 -15.59375 8.394531 -15.472656 9.1875 -15.234375 C 9.976562 -14.992188 10.566406 -14.753906 10.953125 -14.515625 L 11.515625 -14.140625 L 10.09375 -11.359375 C 9.988281 -11.429688 9.835938 -11.523438 9.640625 -11.640625 C 9.441406 -11.765625 9.066406 -11.925781 8.515625 -12.125 C 7.972656 -12.320312 7.46875 -12.421875 7 -12.421875 C 6.414062 -12.421875 5.960938 -12.296875 5.640625 -12.046875 C 5.328125 -11.796875 5.171875 -11.460938 5.171875 -11.046875 C 5.171875 -10.835938 5.242188 -10.640625 5.390625 -10.453125 C 5.546875 -10.273438 5.800781 -10.082031 6.15625 -9.875 C 6.519531 -9.675781 6.835938 -9.515625 7.109375 -9.390625 C 7.378906 -9.265625 7.800781 -9.078125 8.375 -8.828125 C 9.363281 -8.410156 10.207031 -7.835938 10.90625 -7.109375 C 11.601562 -6.390625 11.953125 -5.570312 11.953125 -4.65625 C 11.953125 -3.78125 11.789062 -3.015625 11.46875 -2.359375 C 11.15625 -1.703125 10.722656 -1.1875 10.171875 -0.8125 C 9.628906 -0.445312 9.019531 -0.175781 8.34375 0 C 7.675781 0.1875 6.957031 0.28125 6.1875 0.28125 C 5.507812 0.28125 4.847656 0.210938 4.203125 0.078125 C 3.566406 -0.0546875 3.03125 -0.226562 2.59375 -0.4375 C 2.164062 -0.644531 1.773438 -0.847656 1.421875 -1.046875 C 1.078125 -1.242188 0.828125 -1.410156 0.671875 -1.546875 L 0.421875 -1.75 L 2.171875 -4.671875 C 2.316406 -4.546875 2.519531 -4.390625 2.78125 -4.203125 C 3.039062 -4.015625 3.5 -3.757812 4.15625 -3.4375 C 4.820312 -3.113281 5.410156 -2.953125 5.921875 -2.953125 C 7.390625 -2.953125 8.125 -3.453125 8.125 -4.453125 C 8.125 -4.660156 8.070312 -4.851562 7.96875 -5.03125 C 7.863281 -5.21875 7.675781 -5.398438 7.40625 -5.578125 C 7.144531 -5.753906 6.910156 -5.894531 6.703125 -6 C 6.503906 -6.101562 6.171875 -6.265625 5.703125 -6.484375 C 5.242188 -6.703125 4.898438 -6.867188 4.671875 -6.984375 C 3.742188 -7.441406 3.023438 -8.015625 2.515625 -8.703125 C 2.015625 -9.390625 1.765625 -10.128906 1.765625 -10.921875 C 1.765625 -12.285156 2.269531 -13.40625 3.28125 -14.28125 C 4.300781 -15.15625 5.457031 -15.59375 6.75 -15.59375 Z M 6.75 -15.59375 "/></g></g></g><g fill="#054676" fill-opacity="1"><g transform="translate(104.277802, 260.159501)"><g><path d="M 1.109375 -15.3125 L 6.703125 -15.3125 C 8.265625 -15.3125 9.523438 -14.910156 10.484375 -14.109375 C 11.453125 -13.304688 11.9375 -12.132812 11.9375 -10.59375 C 11.9375 -9.0625 11.445312 -7.859375 10.46875 -6.984375 C 9.488281 -6.117188 8.234375 -5.6875 6.703125 -5.6875 L 4.609375 -5.6875 L 4.609375 0 L 1.109375 0 Z M 4.609375 -8.46875 L 5.59375 -8.46875 C 6.363281 -8.46875 7 -8.625 7.5 -8.9375 C 8.007812 -9.25 8.265625 -9.765625 8.265625 -10.484375 C 8.265625 -11.210938 8.007812 -11.734375 7.5 -12.046875 C 7 -12.367188 6.363281 -12.53125 5.59375 -12.53125 L 4.609375 -12.53125 Z M 4.609375 -8.46875 "/></g></g></g><g fill="#054676" fill-opacity="1"><g transform="translate(116.640419, 260.159501)"><g><path d="M 4.609375 -15.3125 L 4.609375 0 L 1.109375 0 L 1.109375 -15.3125 Z M 4.609375 -15.3125 "/></g></g></g><g fill="#054676" fill-opacity="1"><g transform="translate(122.357669, 260.159501)"><g><path d="M 1.109375 -15.3125 L 6.59375 -15.3125 C 8.0625 -15.3125 9.257812 -14.914062 10.1875 -14.125 C 11.113281 -13.34375 11.578125 -12.222656 11.578125 -10.765625 C 11.578125 -9.640625 11.296875 -8.695312 10.734375 -7.9375 C 10.171875 -7.175781 9.410156 -6.640625 8.453125 -6.328125 L 13.71875 0 L 9.28125 0 L 4.609375 -6.046875 L 4.609375 0 L 1.109375 0 Z M 4.609375 -8.515625 L 5.015625 -8.515625 C 5.335938 -8.515625 5.609375 -8.519531 5.828125 -8.53125 C 6.046875 -8.550781 6.296875 -8.597656 6.578125 -8.671875 C 6.867188 -8.742188 7.097656 -8.847656 7.265625 -8.984375 C 7.441406 -9.117188 7.59375 -9.316406 7.71875 -9.578125 C 7.84375 -9.835938 7.90625 -10.148438 7.90625 -10.515625 C 7.90625 -10.890625 7.84375 -11.207031 7.71875 -11.46875 C 7.59375 -11.726562 7.441406 -11.925781 7.265625 -12.0625 C 7.097656 -12.195312 6.867188 -12.300781 6.578125 -12.375 C 6.296875 -12.457031 6.046875 -12.503906 5.828125 -12.515625 C 5.609375 -12.523438 5.335938 -12.53125 5.015625 -12.53125 L 4.609375 -12.53125 Z M 4.609375 -8.515625 "/></g></g></g><g fill="#054676" fill-opacity="1"><g transform="translate(135.648413, 260.159501)"><g><path d="M 9.875 -15.3125 L 9.875 -12.25 L 4.609375 -12.25 L 4.609375 -9.203125 L 9.65625 -9.203125 L 9.65625 -6.140625 L 4.609375 -6.140625 L 4.609375 -3.0625 L 9.875 -3.0625 L 9.875 0 L 1.109375 0 L 1.109375 -15.3125 Z M 9.875 -15.3125 "/></g></g></g><g fill="#054676" fill-opacity="1"><g transform="translate(146.414659, 260.159501)"><g/></g></g><g fill="#054676" fill-opacity="1"><g transform="translate(151.482217, 260.159501)"><g><path d="M 4.609375 -15.3125 L 4.609375 -3.0625 L 9.875 -3.0625 L 9.875 0 L 1.109375 0 L 1.109375 -15.3125 Z M 4.609375 -15.3125 "/></g></g></g><g fill="#054676" fill-opacity="1"><g transform="translate(161.970028, 260.159501)"><g><path d="M 9.875 -15.3125 L 9.875 -12.25 L 4.609375 -12.25 L 4.609375 -9.203125 L 9.65625 -9.203125 L 9.65625 -6.140625 L 4.609375 -6.140625 L 4.609375 -3.0625 L 9.875 -3.0625 L 9.875 0 L 1.109375 0 L 1.109375 -15.3125 Z M 9.875 -15.3125 "/></g></g></g><g fill="#054676" fill-opacity="1"><g transform="translate(172.736274, 260.159501)"><g><path d="M 8.890625 -15.3125 L 15.078125 0 L 11.328125 0 L 10.1875 -3.0625 L 4.359375 -3.0625 L 3.234375 0 L -0.515625 0 L 5.65625 -15.3125 Z M 9 -6.125 L 7.296875 -10.578125 L 7.265625 -10.578125 L 5.546875 -6.125 Z M 9 -6.125 "/></g></g></g><g fill="#054676" fill-opacity="1"><g transform="translate(187.289267, 260.159501)"><g><path d="M 1.109375 -15.3125 L 6.59375 -15.3125 C 8.0625 -15.3125 9.257812 -14.914062 10.1875 -14.125 C 11.113281 -13.34375 11.578125 -12.222656 11.578125 -10.765625 C 11.578125 -9.640625 11.296875 -8.695312 10.734375 -7.9375 C 10.171875 -7.175781 9.410156 -6.640625 8.453125 -6.328125 L 13.71875 0 L 9.28125 0 L 4.609375 -6.046875 L 4.609375 0 L 1.109375 0 Z M 4.609375 -8.515625 L 5.015625 -8.515625 C 5.335938 -8.515625 5.609375 -8.519531 5.828125 -8.53125 C 6.046875 -8.550781 6.296875 -8.597656 6.578125 -8.671875 C 6.867188 -8.742188 7.097656 -8.847656 7.265625 -8.984375 C 7.441406 -9.117188 7.59375 -9.316406 7.71875 -9.578125 C 7.84375 -9.835938 7.90625 -10.148438 7.90625 -10.515625 C 7.90625 -10.890625 7.84375 -11.207031 7.71875 -11.46875 C 7.59375 -11.726562 7.441406 -11.925781 7.265625 -12.0625 C 7.097656 -12.195312 6.867188 -12.300781 6.578125 -12.375 C 6.296875 -12.457031 6.046875 -12.503906 5.828125 -12.515625 C 5.609375 -12.523438 5.335938 -12.53125 5.015625 -12.53125 L 4.609375 -12.53125 Z M 4.609375 -8.515625 "/></g></g></g><g fill="#054676" fill-opacity="1"><g transform="translate(200.580011, 260.159501)"><g><path d="M 4.609375 -9.5 L 4.609375 0 L 1.109375 0 L 1.109375 -15.3125 L 4.609375 -15.3125 L 10.6875 -5.8125 L 10.734375 -5.8125 L 10.734375 -15.3125 L 14.21875 -15.3125 L 14.21875 0 L 10.734375 0 L 4.640625 -9.5 Z M 4.609375 -9.5 "/></g></g></g><g fill="#054676" fill-opacity="1"><g transform="translate(215.912633, 260.159501)"><g><path d="M 4.609375 -15.3125 L 4.609375 0 L 1.109375 0 L 1.109375 -15.3125 Z M 4.609375 -15.3125 "/></g></g></g><g fill="#054676" fill-opacity="1"><g transform="translate(221.629884, 260.159501)"><g><path d="M 4.609375 -9.5 L 4.609375 0 L 1.109375 0 L 1.109375 -15.3125 L 4.609375 -15.3125 L 10.6875 -5.8125 L 10.734375 -5.8125 L 10.734375 -15.3125 L 14.21875 -15.3125 L 14.21875 0 L 10.734375 0 L 4.640625 -9.5 Z M 4.609375 -9.5 "/></g></g></g><g fill="#054676" fill-opacity="1"><g transform="translate(236.962505, 260.159501)"><g><path d="M 14.96875 -8.578125 L 14.96875 -5.25 C 14.570312 -3.4375 13.703125 -2.0625 12.359375 -1.125 C 11.023438 -0.1875 9.535156 0.28125 7.890625 0.28125 C 5.828125 0.28125 4.066406 -0.488281 2.609375 -2.03125 C 1.148438 -3.582031 0.421875 -5.453125 0.421875 -7.640625 C 0.421875 -9.867188 1.132812 -11.75 2.5625 -13.28125 C 3.988281 -14.820312 5.765625 -15.59375 7.890625 -15.59375 C 10.378906 -15.59375 12.347656 -14.71875 13.796875 -12.96875 L 11.515625 -10.46875 C 10.691406 -11.78125 9.550781 -12.4375 8.09375 -12.4375 C 7.019531 -12.4375 6.097656 -11.96875 5.328125 -11.03125 C 4.566406 -10.101562 4.1875 -8.972656 4.1875 -7.640625 C 4.1875 -6.347656 4.566406 -5.238281 5.328125 -4.3125 C 6.097656 -3.394531 7.019531 -2.9375 8.09375 -2.9375 C 8.988281 -2.9375 9.765625 -3.203125 10.421875 -3.734375 C 11.085938 -4.273438 11.421875 -4.992188 11.421875 -5.890625 L 7.890625 -5.890625 L 7.890625 -8.578125 Z M 14.96875 -8.578125 "/></g></g></g><g fill="#054676" fill-opacity="1"><g transform="translate(252.350814, 260.159501)"><g/></g></g><g fill="#054676" fill-opacity="1"><g transform="translate(257.418372, 260.159501)"><g><path d="M 4.609375 -6.140625 L 4.609375 0 L 1.109375 0 L 1.109375 -15.3125 L 4.609375 -15.3125 L 4.609375 -9.203125 L 9.546875 -9.203125 L 9.546875 -15.3125 L 13.03125 -15.3125 L 13.03125 0 L 9.546875 0 L 9.546875 -6.140625 Z M 4.609375 -6.140625 "/></g></g></g><g fill="#054676" fill-opacity="1"><g transform="translate(271.563005, 260.159501)"><g><path d="M 12.875 -15.3125 L 12.875 -5.4375 C 12.875 -3.5625 12.367188 -2.140625 11.359375 -1.171875 C 10.347656 -0.203125 8.863281 0.28125 6.90625 0.28125 C 4.945312 0.28125 3.457031 -0.203125 2.4375 -1.171875 C 1.425781 -2.140625 0.921875 -3.5625 0.921875 -5.4375 L 0.921875 -15.3125 L 4.421875 -15.3125 L 4.421875 -6.453125 C 4.421875 -5.222656 4.613281 -4.363281 5 -3.875 C 5.394531 -3.394531 6.03125 -3.15625 6.90625 -3.15625 C 7.78125 -3.15625 8.410156 -3.394531 8.796875 -3.875 C 9.191406 -4.363281 9.390625 -5.222656 9.390625 -6.453125 L 9.390625 -15.3125 Z M 12.875 -15.3125 "/></g></g></g><g fill="#054676" fill-opacity="1"><g transform="translate(285.373505, 260.159501)"><g><path d="M 1.109375 -15.3125 L 5.859375 -15.3125 C 7.296875 -15.3125 8.441406 -15.003906 9.296875 -14.390625 C 10.148438 -13.773438 10.578125 -12.785156 10.578125 -11.421875 C 10.578125 -9.878906 9.941406 -8.78125 8.671875 -8.125 C 10.847656 -7.75 11.9375 -6.460938 11.9375 -4.265625 C 11.9375 -2.984375 11.488281 -1.953125 10.59375 -1.171875 C 9.707031 -0.390625 8.484375 0 6.921875 0 L 1.109375 0 Z M 4.609375 -9.3125 L 4.875 -9.3125 C 5.65625 -9.3125 6.238281 -9.445312 6.625 -9.71875 C 7.007812 -10 7.203125 -10.445312 7.203125 -11.0625 C 7.203125 -12.101562 6.425781 -12.625 4.875 -12.625 L 4.609375 -12.625 Z M 4.609375 -2.6875 L 5.703125 -2.6875 C 7.410156 -2.6875 8.265625 -3.257812 8.265625 -4.40625 C 8.265625 -5.082031 8.050781 -5.566406 7.625 -5.859375 C 7.195312 -6.160156 6.554688 -6.3125 5.703125 -6.3125 L 4.609375 -6.3125 Z M 4.609375 -2.6875 "/></g></g></g><g fill="#054676" fill-opacity="1"><g transform="translate(90.503905, 278.010246)"><g><path d="M 7.171875 -2.546875 L 1.921875 -2.546875 L 0.78125 0 L 0.0625 0 L 4.21875 -9.046875 L 4.890625 -9.046875 L 9.046875 0 L 8.328125 0 Z M 6.921875 -3.09375 L 4.546875 -8.328125 L 2.1875 -3.09375 Z M 6.921875 -3.09375 "/></g></g></g><g fill="#054676" fill-opacity="1"><g transform="translate(99.608354, 278.010246)"><g><path d="M 4.046875 0.046875 C 3.390625 0.046875 2.800781 -0.0976562 2.28125 -0.390625 C 1.769531 -0.679688 1.367188 -1.085938 1.078125 -1.609375 C 0.785156 -2.128906 0.640625 -2.71875 0.640625 -3.375 C 0.640625 -4.039062 0.785156 -4.632812 1.078125 -5.15625 C 1.367188 -5.675781 1.769531 -6.078125 2.28125 -6.359375 C 2.800781 -6.648438 3.390625 -6.796875 4.046875 -6.796875 C 4.585938 -6.796875 5.078125 -6.6875 5.515625 -6.46875 C 5.960938 -6.257812 6.328125 -5.957031 6.609375 -5.5625 L 6.125 -5.203125 C 5.882812 -5.546875 5.582031 -5.800781 5.21875 -5.96875 C 4.863281 -6.132812 4.472656 -6.21875 4.046875 -6.21875 C 3.515625 -6.21875 3.039062 -6.097656 2.625 -5.859375 C 2.207031 -5.617188 1.878906 -5.285156 1.640625 -4.859375 C 1.410156 -4.429688 1.296875 -3.9375 1.296875 -3.375 C 1.296875 -2.8125 1.410156 -2.3125 1.640625 -1.875 C 1.878906 -1.445312 2.207031 -1.113281 2.625 -0.875 C 3.039062 -0.644531 3.515625 -0.53125 4.046875 -0.53125 C 4.472656 -0.53125 4.863281 -0.613281 5.21875 -0.78125 C 5.582031 -0.945312 5.882812 -1.195312 6.125 -1.53125 L 6.609375 -1.1875 C 6.328125 -0.78125 5.960938 -0.472656 5.515625 -0.265625 C 5.078125 -0.0546875 4.585938 0.046875 4.046875 0.046875 Z M 4.046875 0.046875 "/></g></g></g><g fill="#054676" fill-opacity="1"><g transform="translate(106.775686, 278.010246)"><g><path d="M 4.671875 -6.796875 C 5.515625 -6.796875 6.179688 -6.550781 6.671875 -6.0625 C 7.160156 -5.570312 7.40625 -4.863281 7.40625 -3.9375 L 7.40625 0 L 6.765625 0 L 6.765625 -3.890625 C 6.765625 -4.648438 6.570312 -5.226562 6.1875 -5.625 C 5.800781 -6.019531 5.265625 -6.21875 4.578125 -6.21875 C 3.785156 -6.21875 3.160156 -5.976562 2.703125 -5.5 C 2.242188 -5.03125 2.015625 -4.394531 2.015625 -3.59375 L 2.015625 0 L 1.375 0 L 1.375 -9.59375 L 2.015625 -9.59375 L 2.015625 -5.34375 C 2.242188 -5.800781 2.585938 -6.15625 3.046875 -6.40625 C 3.503906 -6.664062 4.046875 -6.796875 4.671875 -6.796875 Z M 4.671875 -6.796875 "/></g></g></g><g fill="#054676" fill-opacity="1"><g transform="translate(115.466889, 278.010246)"><g><path d="M 1.375 -6.75 L 2.015625 -6.75 L 2.015625 0 L 1.375 0 Z M 1.6875 -8.390625 C 1.539062 -8.390625 1.414062 -8.4375 1.3125 -8.53125 C 1.207031 -8.632812 1.15625 -8.757812 1.15625 -8.90625 C 1.15625 -9.050781 1.207031 -9.175781 1.3125 -9.28125 C 1.414062 -9.382812 1.539062 -9.4375 1.6875 -9.4375 C 1.832031 -9.4375 1.957031 -9.382812 2.0625 -9.28125 C 2.164062 -9.1875 2.21875 -9.066406 2.21875 -8.921875 C 2.21875 -8.773438 2.164062 -8.648438 2.0625 -8.546875 C 1.957031 -8.441406 1.832031 -8.390625 1.6875 -8.390625 Z M 1.6875 -8.390625 "/></g></g></g><g fill="#054676" fill-opacity="1"><g transform="translate(118.837472, 278.010246)"><g><path d="M 7.0625 -3.21875 L 1.265625 -3.21875 C 1.285156 -2.6875 1.421875 -2.21875 1.671875 -1.8125 C 1.921875 -1.40625 2.257812 -1.085938 2.6875 -0.859375 C 3.113281 -0.640625 3.59375 -0.53125 4.125 -0.53125 C 4.5625 -0.53125 4.96875 -0.609375 5.34375 -0.765625 C 5.71875 -0.929688 6.03125 -1.164062 6.28125 -1.46875 L 6.65625 -1.046875 C 6.363281 -0.691406 5.992188 -0.421875 5.546875 -0.234375 C 5.109375 -0.046875 4.628906 0.046875 4.109375 0.046875 C 3.429688 0.046875 2.832031 -0.0976562 2.3125 -0.390625 C 1.789062 -0.679688 1.378906 -1.082031 1.078125 -1.59375 C 0.785156 -2.113281 0.640625 -2.707031 0.640625 -3.375 C 0.640625 -4.03125 0.773438 -4.617188 1.046875 -5.140625 C 1.328125 -5.660156 1.710938 -6.066406 2.203125 -6.359375 C 2.703125 -6.648438 3.253906 -6.796875 3.859375 -6.796875 C 4.472656 -6.796875 5.019531 -6.648438 5.5 -6.359375 C 5.988281 -6.078125 6.375 -5.675781 6.65625 -5.15625 C 6.9375 -4.632812 7.078125 -4.046875 7.078125 -3.390625 Z M 3.859375 -6.234375 C 3.390625 -6.234375 2.960938 -6.125 2.578125 -5.90625 C 2.203125 -5.695312 1.898438 -5.398438 1.671875 -5.015625 C 1.441406 -4.628906 1.3125 -4.195312 1.28125 -3.71875 L 6.453125 -3.71875 C 6.421875 -4.195312 6.289062 -4.625 6.0625 -5 C 5.832031 -5.382812 5.523438 -5.6875 5.140625 -5.90625 C 4.765625 -6.125 4.335938 -6.234375 3.859375 -6.234375 Z M 3.859375 -6.234375 "/></g></g></g><g fill="#054676" fill-opacity="1"><g transform="translate(126.547207, 278.010246)"><g><path d="M 6.78125 -6.75 L 3.734375 0 L 3.078125 0 L 0.03125 -6.75 L 0.71875 -6.75 L 3.40625 -0.703125 L 6.125 -6.75 Z M 6.78125 -6.75 "/></g></g></g><g fill="#054676" fill-opacity="1"><g transform="translate(133.36586, 278.010246)"><g><path d="M 1.375 -6.75 L 2.015625 -6.75 L 2.015625 0 L 1.375 0 Z M 1.6875 -8.390625 C 1.539062 -8.390625 1.414062 -8.4375 1.3125 -8.53125 C 1.207031 -8.632812 1.15625 -8.757812 1.15625 -8.90625 C 1.15625 -9.050781 1.207031 -9.175781 1.3125 -9.28125 C 1.414062 -9.382812 1.539062 -9.4375 1.6875 -9.4375 C 1.832031 -9.4375 1.957031 -9.382812 2.0625 -9.28125 C 2.164062 -9.1875 2.21875 -9.066406 2.21875 -8.921875 C 2.21875 -8.773438 2.164062 -8.648438 2.0625 -8.546875 C 1.957031 -8.441406 1.832031 -8.390625 1.6875 -8.390625 Z M 1.6875 -8.390625 "/></g></g></g><g fill="#054676" fill-opacity="1"><g transform="translate(136.736442, 278.010246)"><g><path d="M 4.671875 -6.796875 C 5.515625 -6.796875 6.179688 -6.550781 6.671875 -6.0625 C 7.160156 -5.570312 7.40625 -4.863281 7.40625 -3.9375 L 7.40625 0 L 6.765625 0 L 6.765625 -3.890625 C 6.765625 -4.648438 6.570312 -5.226562 6.1875 -5.625 C 5.800781 -6.019531 5.265625 -6.21875 4.578125 -6.21875 C 3.785156 -6.21875 3.160156 -5.976562 2.703125 -5.5 C 2.242188 -5.03125 2.015625 -4.394531 2.015625 -3.59375 L 2.015625 0 L 1.375 0 L 1.375 -6.75 L 1.984375 -6.75 L 1.984375 -5.28125 C 2.222656 -5.757812 2.570312 -6.128906 3.03125 -6.390625 C 3.488281 -6.660156 4.035156 -6.796875 4.671875 -6.796875 Z M 4.671875 -6.796875 "/></g></g></g><g fill="#054676" fill-opacity="1"><g transform="translate(145.427645, 278.010246)"><g><path d="M 7.4375 -6.75 L 7.4375 -0.71875 C 7.4375 0.394531 7.164062 1.21875 6.625 1.75 C 6.082031 2.289062 5.265625 2.5625 4.171875 2.5625 C 3.554688 2.5625 2.972656 2.460938 2.421875 2.265625 C 1.867188 2.078125 1.421875 1.816406 1.078125 1.484375 L 1.4375 1 C 1.769531 1.300781 2.171875 1.539062 2.640625 1.71875 C 3.117188 1.894531 3.625 1.984375 4.15625 1.984375 C 5.050781 1.984375 5.710938 1.769531 6.140625 1.34375 C 6.578125 0.914062 6.796875 0.253906 6.796875 -0.640625 L 6.796875 -1.78125 C 6.523438 -1.289062 6.140625 -0.910156 5.640625 -0.640625 C 5.148438 -0.378906 4.601562 -0.25 4 -0.25 C 3.363281 -0.25 2.789062 -0.382812 2.28125 -0.65625 C 1.769531 -0.9375 1.367188 -1.328125 1.078125 -1.828125 C 0.785156 -2.328125 0.640625 -2.894531 0.640625 -3.53125 C 0.640625 -4.15625 0.785156 -4.71875 1.078125 -5.21875 C 1.367188 -5.71875 1.769531 -6.101562 2.28125 -6.375 C 2.789062 -6.65625 3.363281 -6.796875 4 -6.796875 C 4.613281 -6.796875 5.171875 -6.65625 5.671875 -6.375 C 6.171875 -6.101562 6.554688 -5.71875 6.828125 -5.21875 L 6.828125 -6.75 Z M 4.046875 -0.828125 C 4.566406 -0.828125 5.035156 -0.941406 5.453125 -1.171875 C 5.878906 -1.398438 6.210938 -1.71875 6.453125 -2.125 C 6.691406 -2.53125 6.8125 -3 6.8125 -3.53125 C 6.8125 -4.050781 6.691406 -4.515625 6.453125 -4.921875 C 6.210938 -5.328125 5.878906 -5.644531 5.453125 -5.875 C 5.035156 -6.101562 4.566406 -6.21875 4.046875 -6.21875 C 3.515625 -6.21875 3.039062 -6.101562 2.625 -5.875 C 2.207031 -5.644531 1.878906 -5.328125 1.640625 -4.921875 C 1.410156 -4.515625 1.296875 -4.050781 1.296875 -3.53125 C 1.296875 -3 1.410156 -2.53125 1.640625 -2.125 C 1.878906 -1.71875 2.207031 -1.398438 2.625 -1.171875 C 3.039062 -0.941406 3.515625 -0.828125 4.046875 -0.828125 Z M 4.046875 -0.828125 "/></g></g></g><g fill="#054676" fill-opacity="1"><g transform="translate(154.235075, 278.010246)"><g/></g></g><g fill="#054676" fill-opacity="1"><g transform="translate(157.553999, 278.010246)"><g><path d="M 7.0625 -3.21875 L 1.265625 -3.21875 C 1.285156 -2.6875 1.421875 -2.21875 1.671875 -1.8125 C 1.921875 -1.40625 2.257812 -1.085938 2.6875 -0.859375 C 3.113281 -0.640625 3.59375 -0.53125 4.125 -0.53125 C 4.5625 -0.53125 4.96875 -0.609375 5.34375 -0.765625 C 5.71875 -0.929688 6.03125 -1.164062 6.28125 -1.46875 L 6.65625 -1.046875 C 6.363281 -0.691406 5.992188 -0.421875 5.546875 -0.234375 C 5.109375 -0.046875 4.628906 0.046875 4.109375 0.046875 C 3.429688 0.046875 2.832031 -0.0976562 2.3125 -0.390625 C 1.789062 -0.679688 1.378906 -1.082031 1.078125 -1.59375 C 0.785156 -2.113281 0.640625 -2.707031 0.640625 -3.375 C 0.640625 -4.03125 0.773438 -4.617188 1.046875 -5.140625 C 1.328125 -5.660156 1.710938 -6.066406 2.203125 -6.359375 C 2.703125 -6.648438 3.253906 -6.796875 3.859375 -6.796875 C 4.472656 -6.796875 5.019531 -6.648438 5.5 -6.359375 C 5.988281 -6.078125 6.375 -5.675781 6.65625 -5.15625 C 6.9375 -4.632812 7.078125 -4.046875 7.078125 -3.390625 Z M 3.859375 -6.234375 C 3.390625 -6.234375 2.960938 -6.125 2.578125 -5.90625 C 2.203125 -5.695312 1.898438 -5.398438 1.671875 -5.015625 C 1.441406 -4.628906 1.3125 -4.195312 1.28125 -3.71875 L 6.453125 -3.71875 C 6.421875 -4.195312 6.289062 -4.625 6.0625 -5 C 5.832031 -5.382812 5.523438 -5.6875 5.140625 -5.90625 C 4.765625 -6.125 4.335938 -6.234375 3.859375 -6.234375 Z M 3.859375 -6.234375 "/></g></g></g><g fill="#054676" fill-opacity="1"><g transform="translate(165.263734, 278.010246)"><g><path d="M 5.65625 0 L 3.34375 -3.015625 L 1.03125 0 L 0.296875 0 L 2.96875 -3.46875 L 0.4375 -6.75 L 1.171875 -6.75 L 3.34375 -3.9375 L 5.515625 -6.75 L 6.234375 -6.75 L 3.703125 -3.46875 L 6.421875 0 Z M 5.65625 0 "/></g></g></g><g fill="#054676" fill-opacity="1"><g transform="translate(171.966161, 278.010246)"><g><path d="M 4.046875 0.046875 C 3.390625 0.046875 2.800781 -0.0976562 2.28125 -0.390625 C 1.769531 -0.679688 1.367188 -1.085938 1.078125 -1.609375 C 0.785156 -2.128906 0.640625 -2.71875 0.640625 -3.375 C 0.640625 -4.039062 0.785156 -4.632812 1.078125 -5.15625 C 1.367188 -5.675781 1.769531 -6.078125 2.28125 -6.359375 C 2.800781 -6.648438 3.390625 -6.796875 4.046875 -6.796875 C 4.585938 -6.796875 5.078125 -6.6875 5.515625 -6.46875 C 5.960938 -6.257812 6.328125 -5.957031 6.609375 -5.5625 L 6.125 -5.203125 C 5.882812 -5.546875 5.582031 -5.800781 5.21875 -5.96875 C 4.863281 -6.132812 4.472656 -6.21875 4.046875 -6.21875 C 3.515625 -6.21875 3.039062 -6.097656 2.625 -5.859375 C 2.207031 -5.617188 1.878906 -5.285156 1.640625 -4.859375 C 1.410156 -4.429688 1.296875 -3.9375 1.296875 -3.375 C 1.296875 -2.8125 1.410156 -2.3125 1.640625 -1.875 C 1.878906 -1.445312 2.207031 -1.113281 2.625 -0.875 C 3.039062 -0.644531 3.515625 -0.53125 4.046875 -0.53125 C 4.472656 -0.53125 4.863281 -0.613281 5.21875 -0.78125 C 5.582031 -0.945312 5.882812 -1.195312 6.125 -1.53125 L 6.609375 -1.1875 C 6.328125 -0.78125 5.960938 -0.472656 5.515625 -0.265625 C 5.078125 -0.0546875 4.585938 0.046875 4.046875 0.046875 Z M 4.046875 0.046875 "/></g></g></g><g fill="#054676" fill-opacity="1"><g transform="translate(179.133492, 278.010246)"><g><path d="M 7.0625 -3.21875 L 1.265625 -3.21875 C 1.285156 -2.6875 1.421875 -2.21875 1.671875 -1.8125 C 1.921875 -1.40625 2.257812 -1.085938 2.6875 -0.859375 C 3.113281 -0.640625 3.59375 -0.53125 4.125 -0.53125 C 4.5625 -0.53125 4.96875 -0.609375 5.34375 -0.765625 C 5.71875 -0.929688 6.03125 -1.164062 6.28125 -1.46875 L 6.65625 -1.046875 C 6.363281 -0.691406 5.992188 -0.421875 5.546875 -0.234375 C 5.109375 -0.046875 4.628906 0.046875 4.109375 0.046875 C 3.429688 0.046875 2.832031 -0.0976562 2.3125 -0.390625 C 1.789062 -0.679688 1.378906 -1.082031 1.078125 -1.59375 C 0.785156 -2.113281 0.640625 -2.707031 0.640625 -3.375 C 0.640625 -4.03125 0.773438 -4.617188 1.046875 -5.140625 C 1.328125 -5.660156 1.710938 -6.066406 2.203125 -6.359375 C 2.703125 -6.648438 3.253906 -6.796875 3.859375 -6.796875 C 4.472656 -6.796875 5.019531 -6.648438 5.5 -6.359375 C 5.988281 -6.078125 6.375 -5.675781 6.65625 -5.15625 C 6.9375 -4.632812 7.078125 -4.046875 7.078125 -3.390625 Z M 3.859375 -6.234375 C 3.390625 -6.234375 2.960938 -6.125 2.578125 -5.90625 C 2.203125 -5.695312 1.898438 -5.398438 1.671875 -5.015625 C 1.441406 -4.628906 1.3125 -4.195312 1.28125 -3.71875 L 6.453125 -3.71875 C 6.421875 -4.195312 6.289062 -4.625 6.0625 -5 C 5.832031 -5.382812 5.523438 -5.6875 5.140625 -5.90625 C 4.765625 -6.125 4.335938 -6.234375 3.859375 -6.234375 Z M 3.859375 -6.234375 "/></g></g></g><g fill="#054676" fill-opacity="1"><g transform="translate(186.843227, 278.010246)"><g><path d="M 1.375 -9.59375 L 2.015625 -9.59375 L 2.015625 0 L 1.375 0 Z M 1.375 -9.59375 "/></g></g></g><g fill="#054676" fill-opacity="1"><g transform="translate(190.21381, 278.010246)"><g><path d="M 1.375 -9.59375 L 2.015625 -9.59375 L 2.015625 0 L 1.375 0 Z M 1.375 -9.59375 "/></g></g></g><g fill="#054676" fill-opacity="1"><g transform="translate(193.584392, 278.010246)"><g><path d="M 7.0625 -3.21875 L 1.265625 -3.21875 C 1.285156 -2.6875 1.421875 -2.21875 1.671875 -1.8125 C 1.921875 -1.40625 2.257812 -1.085938 2.6875 -0.859375 C 3.113281 -0.640625 3.59375 -0.53125 4.125 -0.53125 C 4.5625 -0.53125 4.96875 -0.609375 5.34375 -0.765625 C 5.71875 -0.929688 6.03125 -1.164062 6.28125 -1.46875 L 6.65625 -1.046875 C 6.363281 -0.691406 5.992188 -0.421875 5.546875 -0.234375 C 5.109375 -0.046875 4.628906 0.046875 4.109375 0.046875 C 3.429688 0.046875 2.832031 -0.0976562 2.3125 -0.390625 C 1.789062 -0.679688 1.378906 -1.082031 1.078125 -1.59375 C 0.785156 -2.113281 0.640625 -2.707031 0.640625 -3.375 C 0.640625 -4.03125 0.773438 -4.617188 1.046875 -5.140625 C 1.328125 -5.660156 1.710938 -6.066406 2.203125 -6.359375 C 2.703125 -6.648438 3.253906 -6.796875 3.859375 -6.796875 C 4.472656 -6.796875 5.019531 -6.648438 5.5 -6.359375 C 5.988281 -6.078125 6.375 -5.675781 6.65625 -5.15625 C 6.9375 -4.632812 7.078125 -4.046875 7.078125 -3.390625 Z M 3.859375 -6.234375 C 3.390625 -6.234375 2.960938 -6.125 2.578125 -5.90625 C 2.203125 -5.695312 1.898438 -5.398438 1.671875 -5.015625 C 1.441406 -4.628906 1.3125 -4.195312 1.28125 -3.71875 L 6.453125 -3.71875 C 6.421875 -4.195312 6.289062 -4.625 6.0625 -5 C 5.832031 -5.382812 5.523438 -5.6875 5.140625 -5.90625 C 4.765625 -6.125 4.335938 -6.234375 3.859375 -6.234375 Z M 3.859375 -6.234375 "/></g></g></g><g fill="#054676" fill-opacity="1"><g transform="translate(201.294127, 278.010246)"><g><path d="M 4.671875 -6.796875 C 5.515625 -6.796875 6.179688 -6.550781 6.671875 -6.0625 C 7.160156 -5.570312 7.40625 -4.863281 7.40625 -3.9375 L 7.40625 0 L 6.765625 0 L 6.765625 -3.890625 C 6.765625 -4.648438 6.570312 -5.226562 6.1875 -5.625 C 5.800781 -6.019531 5.265625 -6.21875 4.578125 -6.21875 C 3.785156 -6.21875 3.160156 -5.976562 2.703125 -5.5 C 2.242188 -5.03125 2.015625 -4.394531 2.015625 -3.59375 L 2.015625 0 L 1.375 0 L 1.375 -6.75 L 1.984375 -6.75 L 1.984375 -5.28125 C 2.222656 -5.757812 2.570312 -6.128906 3.03125 -6.390625 C 3.488281 -6.660156 4.035156 -6.796875 4.671875 -6.796875 Z M 4.671875 -6.796875 "/></g></g></g><g fill="#054676" fill-opacity="1"><g transform="translate(209.985331, 278.010246)"><g><path d="M 4.046875 0.046875 C 3.390625 0.046875 2.800781 -0.0976562 2.28125 -0.390625 C 1.769531 -0.679688 1.367188 -1.085938 1.078125 -1.609375 C 0.785156 -2.128906 0.640625 -2.71875 0.640625 -3.375 C 0.640625 -4.039062 0.785156 -4.632812 1.078125 -5.15625 C 1.367188 -5.675781 1.769531 -6.078125 2.28125 -6.359375 C 2.800781 -6.648438 3.390625 -6.796875 4.046875 -6.796875 C 4.585938 -6.796875 5.078125 -6.6875 5.515625 -6.46875 C 5.960938 -6.257812 6.328125 -5.957031 6.609375 -5.5625 L 6.125 -5.203125 C 5.882812 -5.546875 5.582031 -5.800781 5.21875 -5.96875 C 4.863281 -6.132812 4.472656 -6.21875 4.046875 -6.21875 C 3.515625 -6.21875 3.039062 -6.097656 2.625 -5.859375 C 2.207031 -5.617188 1.878906 -5.285156 1.640625 -4.859375 C 1.410156 -4.429688 1.296875 -3.9375 1.296875 -3.375 C 1.296875 -2.8125 1.410156 -2.3125 1.640625 -1.875 C 1.878906 -1.445312 2.207031 -1.113281 2.625 -0.875 C 3.039062 -0.644531 3.515625 -0.53125 4.046875 -0.53125 C 4.472656 -0.53125 4.863281 -0.613281 5.21875 -0.78125 C 5.582031 -0.945312 5.882812 -1.195312 6.125 -1.53125 L 6.609375 -1.1875 C 6.328125 -0.78125 5.960938 -0.472656 5.515625 -0.265625 C 5.078125 -0.0546875 4.585938 0.046875 4.046875 0.046875 Z M 4.046875 0.046875 "/></g></g></g><g fill="#054676" fill-opacity="1"><g transform="translate(217.152662, 278.010246)"><g><path d="M 7.0625 -3.21875 L 1.265625 -3.21875 C 1.285156 -2.6875 1.421875 -2.21875 1.671875 -1.8125 C 1.921875 -1.40625 2.257812 -1.085938 2.6875 -0.859375 C 3.113281 -0.640625 3.59375 -0.53125 4.125 -0.53125 C 4.5625 -0.53125 4.96875 -0.609375 5.34375 -0.765625 C 5.71875 -0.929688 6.03125 -1.164062 6.28125 -1.46875 L 6.65625 -1.046875 C 6.363281 -0.691406 5.992188 -0.421875 5.546875 -0.234375 C 5.109375 -0.046875 4.628906 0.046875 4.109375 0.046875 C 3.429688 0.046875 2.832031 -0.0976562 2.3125 -0.390625 C 1.789062 -0.679688 1.378906 -1.082031 1.078125 -1.59375 C 0.785156 -2.113281 0.640625 -2.707031 0.640625 -3.375 C 0.640625 -4.03125 0.773438 -4.617188 1.046875 -5.140625 C 1.328125 -5.660156 1.710938 -6.066406 2.203125 -6.359375 C 2.703125 -6.648438 3.253906 -6.796875 3.859375 -6.796875 C 4.472656 -6.796875 5.019531 -6.648438 5.5 -6.359375 C 5.988281 -6.078125 6.375 -5.675781 6.65625 -5.15625 C 6.9375 -4.632812 7.078125 -4.046875 7.078125 -3.390625 Z M 3.859375 -6.234375 C 3.390625 -6.234375 2.960938 -6.125 2.578125 -5.90625 C 2.203125 -5.695312 1.898438 -5.398438 1.671875 -5.015625 C 1.441406 -4.628906 1.3125 -4.195312 1.28125 -3.71875 L 6.453125 -3.71875 C 6.421875 -4.195312 6.289062 -4.625 6.0625 -5 C 5.832031 -5.382812 5.523438 -5.6875 5.140625 -5.90625 C 4.765625 -6.125 4.335938 -6.234375 3.859375 -6.234375 Z M 3.859375 -6.234375 "/></g></g></g><g fill="#054676" fill-opacity="1"><g transform="translate(224.862397, 278.010246)"><g/></g></g><g fill="#054676" fill-opacity="1"><g transform="translate(228.181321, 278.010246)"><g><path d="M 4.71875 -0.421875 C 4.550781 -0.265625 4.34375 -0.144531 4.09375 -0.0625 C 3.851562 0.0078125 3.597656 0.046875 3.328125 0.046875 C 2.742188 0.046875 2.289062 -0.113281 1.96875 -0.4375 C 1.65625 -0.757812 1.5 -1.207031 1.5 -1.78125 L 1.5 -6.1875 L 0.265625 -6.1875 L 0.265625 -6.75 L 1.5 -6.75 L 1.5 -8.21875 L 2.140625 -8.21875 L 2.140625 -6.75 L 4.296875 -6.75 L 4.296875 -6.1875 L 2.140625 -6.1875 L 2.140625 -1.84375 C 2.140625 -1.40625 2.242188 -1.070312 2.453125 -0.84375 C 2.671875 -0.613281 2.984375 -0.5 3.390625 -0.5 C 3.816406 -0.5 4.164062 -0.625 4.4375 -0.875 Z M 4.71875 -0.421875 "/></g></g></g><g fill="#054676" fill-opacity="1"><g transform="translate(233.321137, 278.010246)"><g><path d="M 4 0.046875 C 3.363281 0.046875 2.789062 -0.0976562 2.28125 -0.390625 C 1.769531 -0.679688 1.367188 -1.085938 1.078125 -1.609375 C 0.785156 -2.128906 0.640625 -2.71875 0.640625 -3.375 C 0.640625 -4.03125 0.785156 -4.617188 1.078125 -5.140625 C 1.367188 -5.660156 1.769531 -6.066406 2.28125 -6.359375 C 2.789062 -6.648438 3.363281 -6.796875 4 -6.796875 C 4.644531 -6.796875 5.222656 -6.648438 5.734375 -6.359375 C 6.242188 -6.066406 6.644531 -5.660156 6.9375 -5.140625 C 7.226562 -4.617188 7.375 -4.03125 7.375 -3.375 C 7.375 -2.71875 7.226562 -2.128906 6.9375 -1.609375 C 6.644531 -1.085938 6.242188 -0.679688 5.734375 -0.390625 C 5.222656 -0.0976562 4.644531 0.046875 4 0.046875 Z M 4 -0.53125 C 4.519531 -0.53125 4.984375 -0.648438 5.390625 -0.890625 C 5.804688 -1.128906 6.128906 -1.460938 6.359375 -1.890625 C 6.597656 -2.328125 6.71875 -2.820312 6.71875 -3.375 C 6.71875 -3.925781 6.597656 -4.414062 6.359375 -4.84375 C 6.128906 -5.269531 5.804688 -5.601562 5.390625 -5.84375 C 4.984375 -6.09375 4.519531 -6.21875 4 -6.21875 C 3.488281 -6.21875 3.023438 -6.09375 2.609375 -5.84375 C 2.203125 -5.601562 1.878906 -5.269531 1.640625 -4.84375 C 1.410156 -4.414062 1.296875 -3.925781 1.296875 -3.375 C 1.296875 -2.820312 1.410156 -2.328125 1.640625 -1.890625 C 1.878906 -1.460938 2.203125 -1.128906 2.609375 -0.890625 C 3.023438 -0.648438 3.488281 -0.53125 4 -0.53125 Z M 4 -0.53125 "/></g></g></g><g fill="#054676" fill-opacity="1"><g transform="translate(241.327892, 278.010246)"><g><path d="M 7.4375 -6.75 L 7.4375 -0.71875 C 7.4375 0.394531 7.164062 1.21875 6.625 1.75 C 6.082031 2.289062 5.265625 2.5625 4.171875 2.5625 C 3.554688 2.5625 2.972656 2.460938 2.421875 2.265625 C 1.867188 2.078125 1.421875 1.816406 1.078125 1.484375 L 1.4375 1 C 1.769531 1.300781 2.171875 1.539062 2.640625 1.71875 C 3.117188 1.894531 3.625 1.984375 4.15625 1.984375 C 5.050781 1.984375 5.710938 1.769531 6.140625 1.34375 C 6.578125 0.914062 6.796875 0.253906 6.796875 -0.640625 L 6.796875 -1.78125 C 6.523438 -1.289062 6.140625 -0.910156 5.640625 -0.640625 C 5.148438 -0.378906 4.601562 -0.25 4 -0.25 C 3.363281 -0.25 2.789062 -0.382812 2.28125 -0.65625 C 1.769531 -0.9375 1.367188 -1.328125 1.078125 -1.828125 C 0.785156 -2.328125 0.640625 -2.894531 0.640625 -3.53125 C 0.640625 -4.15625 0.785156 -4.71875 1.078125 -5.21875 C 1.367188 -5.71875 1.769531 -6.101562 2.28125 -6.375 C 2.789062 -6.65625 3.363281 -6.796875 4 -6.796875 C 4.613281 -6.796875 5.171875 -6.65625 5.671875 -6.375 C 6.171875 -6.101562 6.554688 -5.71875 6.828125 -5.21875 L 6.828125 -6.75 Z M 4.046875 -0.828125 C 4.566406 -0.828125 5.035156 -0.941406 5.453125 -1.171875 C 5.878906 -1.398438 6.210938 -1.71875 6.453125 -2.125 C 6.691406 -2.53125 6.8125 -3 6.8125 -3.53125 C 6.8125 -4.050781 6.691406 -4.515625 6.453125 -4.921875 C 6.210938 -5.328125 5.878906 -5.644531 5.453125 -5.875 C 5.035156 -6.101562 4.566406 -6.21875 4.046875 -6.21875 C 3.515625 -6.21875 3.039062 -6.101562 2.625 -5.875 C 2.207031 -5.644531 1.878906 -5.328125 1.640625 -4.921875 C 1.410156 -4.515625 1.296875 -4.050781 1.296875 -3.53125 C 1.296875 -3 1.410156 -2.53125 1.640625 -2.125 C 1.878906 -1.71875 2.207031 -1.398438 2.625 -1.171875 C 3.039062 -0.941406 3.515625 -0.828125 4.046875 -0.828125 Z M 4.046875 -0.828125 "/></g></g></g><g fill="#054676" fill-opacity="1"><g transform="translate(250.135322, 278.010246)"><g><path d="M 7.0625 -3.21875 L 1.265625 -3.21875 C 1.285156 -2.6875 1.421875 -2.21875 1.671875 -1.8125 C 1.921875 -1.40625 2.257812 -1.085938 2.6875 -0.859375 C 3.113281 -0.640625 3.59375 -0.53125 4.125 -0.53125 C 4.5625 -0.53125 4.96875 -0.609375 5.34375 -0.765625 C 5.71875 -0.929688 6.03125 -1.164062 6.28125 -1.46875 L 6.65625 -1.046875 C 6.363281 -0.691406 5.992188 -0.421875 5.546875 -0.234375 C 5.109375 -0.046875 4.628906 0.046875 4.109375 0.046875 C 3.429688 0.046875 2.832031 -0.0976562 2.3125 -0.390625 C 1.789062 -0.679688 1.378906 -1.082031 1.078125 -1.59375 C 0.785156 -2.113281 0.640625 -2.707031 0.640625 -3.375 C 0.640625 -4.03125 0.773438 -4.617188 1.046875 -5.140625 C 1.328125 -5.660156 1.710938 -6.066406 2.203125 -6.359375 C 2.703125 -6.648438 3.253906 -6.796875 3.859375 -6.796875 C 4.472656 -6.796875 5.019531 -6.648438 5.5 -6.359375 C 5.988281 -6.078125 6.375 -5.675781 6.65625 -5.15625 C 6.9375 -4.632812 7.078125 -4.046875 7.078125 -3.390625 Z M 3.859375 -6.234375 C 3.390625 -6.234375 2.960938 -6.125 2.578125 -5.90625 C 2.203125 -5.695312 1.898438 -5.398438 1.671875 -5.015625 C 1.441406 -4.628906 1.3125 -4.195312 1.28125 -3.71875 L 6.453125 -3.71875 C 6.421875 -4.195312 6.289062 -4.625 6.0625 -5 C 5.832031 -5.382812 5.523438 -5.6875 5.140625 -5.90625 C 4.765625 -6.125 4.335938 -6.234375 3.859375 -6.234375 Z M 3.859375 -6.234375 "/></g></g></g><g fill="#054676" fill-opacity="1"><g transform="translate(257.845057, 278.010246)"><g><path d="M 4.71875 -0.421875 C 4.550781 -0.265625 4.34375 -0.144531 4.09375 -0.0625 C 3.851562 0.0078125 3.597656 0.046875 3.328125 0.046875 C 2.742188 0.046875 2.289062 -0.113281 1.96875 -0.4375 C 1.65625 -0.757812 1.5 -1.207031 1.5 -1.78125 L 1.5 -6.1875 L 0.265625 -6.1875 L 0.265625 -6.75 L 1.5 -6.75 L 1.5 -8.21875 L 2.140625 -8.21875 L 2.140625 -6.75 L 4.296875 -6.75 L 4.296875 -6.1875 L 2.140625 -6.1875 L 2.140625 -1.84375 C 2.140625 -1.40625 2.242188 -1.070312 2.453125 -0.84375 C 2.671875 -0.613281 2.984375 -0.5 3.390625 -0.5 C 3.816406 -0.5 4.164062 -0.625 4.4375 -0.875 Z M 4.71875 -0.421875 "/></g></g></g><g fill="#054676" fill-opacity="1"><g transform="translate(262.984873, 278.010246)"><g><path d="M 4.671875 -6.796875 C 5.515625 -6.796875 6.179688 -6.550781 6.671875 -6.0625 C 7.160156 -5.570312 7.40625 -4.863281 7.40625 -3.9375 L 7.40625 0 L 6.765625 0 L 6.765625 -3.890625 C 6.765625 -4.648438 6.570312 -5.226562 6.1875 -5.625 C 5.800781 -6.019531 5.265625 -6.21875 4.578125 -6.21875 C 3.785156 -6.21875 3.160156 -5.976562 2.703125 -5.5 C 2.242188 -5.03125 2.015625 -4.394531 2.015625 -3.59375 L 2.015625 0 L 1.375 0 L 1.375 -9.59375 L 2.015625 -9.59375 L 2.015625 -5.34375 C 2.242188 -5.800781 2.585938 -6.15625 3.046875 -6.40625 C 3.503906 -6.664062 4.046875 -6.796875 4.671875 -6.796875 Z M 4.671875 -6.796875 "/></g></g></g><g fill="#054676" fill-opacity="1"><g transform="translate(271.676077, 278.010246)"><g><path d="M 7.0625 -3.21875 L 1.265625 -3.21875 C 1.285156 -2.6875 1.421875 -2.21875 1.671875 -1.8125 C 1.921875 -1.40625 2.257812 -1.085938 2.6875 -0.859375 C 3.113281 -0.640625 3.59375 -0.53125 4.125 -0.53125 C 4.5625 -0.53125 4.96875 -0.609375 5.34375 -0.765625 C 5.71875 -0.929688 6.03125 -1.164062 6.28125 -1.46875 L 6.65625 -1.046875 C 6.363281 -0.691406 5.992188 -0.421875 5.546875 -0.234375 C 5.109375 -0.046875 4.628906 0.046875 4.109375 0.046875 C 3.429688 0.046875 2.832031 -0.0976562 2.3125 -0.390625 C 1.789062 -0.679688 1.378906 -1.082031 1.078125 -1.59375 C 0.785156 -2.113281 0.640625 -2.707031 0.640625 -3.375 C 0.640625 -4.03125 0.773438 -4.617188 1.046875 -5.140625 C 1.328125 -5.660156 1.710938 -6.066406 2.203125 -6.359375 C 2.703125 -6.648438 3.253906 -6.796875 3.859375 -6.796875 C 4.472656 -6.796875 5.019531 -6.648438 5.5 -6.359375 C 5.988281 -6.078125 6.375 -5.675781 6.65625 -5.15625 C 6.9375 -4.632812 7.078125 -4.046875 7.078125 -3.390625 Z M 3.859375 -6.234375 C 3.390625 -6.234375 2.960938 -6.125 2.578125 -5.90625 C 2.203125 -5.695312 1.898438 -5.398438 1.671875 -5.015625 C 1.441406 -4.628906 1.3125 -4.195312 1.28125 -3.71875 L 6.453125 -3.71875 C 6.421875 -4.195312 6.289062 -4.625 6.0625 -5 C 5.832031 -5.382812 5.523438 -5.6875 5.140625 -5.90625 C 4.765625 -6.125 4.335938 -6.234375 3.859375 -6.234375 Z M 3.859375 -6.234375 "/></g></g></g><g fill="#054676" fill-opacity="1"><g transform="translate(279.385812, 278.010246)"><g><path d="M 1.984375 -5.265625 C 2.191406 -5.765625 2.515625 -6.144531 2.953125 -6.40625 C 3.398438 -6.664062 3.9375 -6.796875 4.5625 -6.796875 L 4.5625 -6.15625 L 4.40625 -6.171875 C 3.65625 -6.171875 3.066406 -5.9375 2.640625 -5.46875 C 2.222656 -5 2.015625 -4.347656 2.015625 -3.515625 L 2.015625 0 L 1.375 0 L 1.375 -6.75 L 1.984375 -6.75 Z M 1.984375 -5.265625 "/></g></g></g></svg>